<?xml version="1.0" encoding="UTF-8" standalone="no"?>
<!-- Created with Inkscape (http://www.inkscape.org/) -->

<svg
   xmlns:dc="http://purl.org/dc/elements/1.1/"
   xmlns:cc="http://creativecommons.org/ns#"
   xmlns:rdf="http://www.w3.org/1999/02/22-rdf-syntax-ns#"
   xmlns:svg="http://www.w3.org/2000/svg"
   xmlns="http://www.w3.org/2000/svg"
   xmlns:xlink="http://www.w3.org/1999/xlink"
   xmlns:sodipodi="http://sodipodi.sourceforge.net/DTD/sodipodi-0.dtd"
   xmlns:inkscape="http://www.inkscape.org/namespaces/inkscape"
   width="26.669254mm"
   height="31.283644mm"
   viewBox="0 0 94.497354 110.84755"
   id="svg2"
   version="1.1"
   inkscape:version="0.91 r13725"
   sodipodi:docname="Mantel-lineart.svg">
  <title
     id="title4136">coat - lineart</title>
  <defs
     id="defs4">
    <pattern
       inkscape:collect="always"
       xlink:href="#Strips1_1"
       id="pattern6298"
       patternTransform="matrix(-0.34633713,-0.61928125,0.94914386,-0.53081498,89.555594,1047.985)" />
    <pattern
       inkscape:collect="always"
       xlink:href="#Polkadots-large"
       id="pattern6185"
       patternTransform="matrix(0.07053738,-0.52901768,0.80973557,0.10796732,103.54634,950.74353)" />
    <pattern
       inkscape:collect="always"
       xlink:href="#Strips1_1"
       id="pattern6078"
       patternTransform="matrix(0.29574145,0.54923265,-2.1661695,1.1664021,40.858898,984.58908)" />
    <pattern
       inkscape:isstock="true"
       inkscape:stockid="Stripes 1:1"
       id="Strips1_1"
       patternTransform="translate(0,0) scale(10,10)"
       height="1"
       width="2"
       patternUnits="userSpaceOnUse"
       inkscape:collect="always">
      <rect
         id="rect5070"
         height="2"
         width="1"
         y="-0.5"
         x="0"
         style="fill:black;stroke:none" />
    </pattern>
    <pattern
       inkscape:collect="always"
       xlink:href="#Polkadots-large"
       id="pattern5969"
       patternTransform="matrix(0.4944453,0.3549037,-0.47861806,0.66680187,94.075783,1010.2318)" />
    <pattern
       inkscape:collect="always"
       xlink:href="#Polkadots-large"
       id="pattern5834"
       patternTransform="matrix(0.64851393,0,0,0.80761292,105.57358,988.6688)" />
    <pattern
       inkscape:collect="always"
       xlink:href="#Polkadots-large"
       id="pattern5832"
       patternTransform="matrix(0.70154693,0,0,0.91367896,155.56347,998.43466)" />
    <pattern
       inkscape:collect="always"
       xlink:href="#Polkadots-large"
       id="pattern5830"
       patternTransform="matrix(0.63083626,0,0,0.94903427,105.18212,962.90249)" />
    <pattern
       inkscape:stockid="Polka dots, large"
       id="Polkadots-large"
       patternTransform="translate(0,0) scale(10,10)"
       height="10"
       width="10"
       patternUnits="userSpaceOnUse"
       inkscape:collect="always">
      <circle
         id="circle5520"
         r="0.45"
         cy="0.810"
         cx="2.567"
         style="fill:black;stroke:none" />
      <circle
         id="circle5522"
         r="0.45"
         cy="2.33"
         cx="3.048"
         style="fill:black;stroke:none" />
      <circle
         id="circle5524"
         r="0.45"
         cy="2.415"
         cx="4.418"
         style="fill:black;stroke:none" />
      <circle
         id="circle5526"
         r="0.45"
         cy="3.029"
         cx="1.844"
         style="fill:black;stroke:none" />
      <circle
         id="circle5528"
         r="0.45"
         cy="1.363"
         cx="6.08"
         style="fill:black;stroke:none" />
      <circle
         id="circle5530"
         r="0.45"
         cy="4.413"
         cx="5.819"
         style="fill:black;stroke:none" />
      <circle
         id="circle5532"
         r="0.45"
         cy="4.048"
         cx="4.305"
         style="fill:black;stroke:none" />
      <circle
         id="circle5534"
         r="0.45"
         cy="3.045"
         cx="5.541"
         style="fill:black;stroke:none" />
      <circle
         id="circle5536"
         r="0.45"
         cy="5.527"
         cx="4.785"
         style="fill:black;stroke:none" />
      <circle
         id="circle5538"
         r="0.45"
         cy="5.184"
         cx="2.667"
         style="fill:black;stroke:none" />
      <circle
         id="circle5540"
         r="0.45"
         cy="1.448"
         cx="7.965"
         style="fill:black;stroke:none" />
      <circle
         id="circle5542"
         r="0.45"
         cy="5.049"
         cx="7.047"
         style="fill:black;stroke:none" />
      <circle
         id="circle5544"
         r="0.45"
         cy="0.895"
         cx="4.340"
         style="fill:black;stroke:none" />
      <circle
         id="circle5546"
         r="0.45"
         cy="0.340"
         cx="7.125"
         style="fill:black;stroke:none" />
      <circle
         id="circle5548"
         r="0.45"
         cy="1.049"
         cx="9.553"
         style="fill:black;stroke:none" />
      <circle
         id="circle5550"
         r="0.45"
         cy="2.689"
         cx="7.006"
         style="fill:black;stroke:none" />
      <circle
         id="circle5552"
         r="0.45"
         cy="2.689"
         cx="8.909"
         style="fill:black;stroke:none" />
      <circle
         id="circle5554"
         r="0.45"
         cy="4.407"
         cx="9.315"
         style="fill:black;stroke:none" />
      <circle
         id="circle5556"
         r="0.45"
         cy="3.870"
         cx="7.820"
         style="fill:black;stroke:none" />
      <circle
         id="circle5558"
         r="0.45"
         cy="5.948"
         cx="8.270"
         style="fill:black;stroke:none" />
      <circle
         id="circle5560"
         r="0.45"
         cy="7.428"
         cx="7.973"
         style="fill:black;stroke:none" />
      <circle
         id="circle5562"
         r="0.45"
         cy="8.072"
         cx="9.342"
         style="fill:black;stroke:none" />
      <circle
         id="circle5564"
         r="0.45"
         cy="9.315"
         cx="8.206"
         style="fill:black;stroke:none" />
      <circle
         id="circle5566"
         r="0.45"
         cy="9.475"
         cx="9.682"
         style="fill:black;stroke:none" />
      <circle
         id="circle5568"
         r="0.45"
         cy="6.186"
         cx="9.688"
         style="fill:black;stroke:none" />
      <circle
         id="circle5570"
         r="0.45"
         cy="6.296"
         cx="3.379"
         style="fill:black;stroke:none" />
      <circle
         id="circle5572"
         r="0.45"
         cy="8.204"
         cx="2.871"
         style="fill:black;stroke:none" />
      <circle
         id="circle5574"
         r="0.45"
         cy="8.719"
         cx="4.59"
         style="fill:black;stroke:none" />
      <circle
         id="circle5576"
         r="0.45"
         cy="9.671"
         cx="3.181"
         style="fill:black;stroke:none" />
      <circle
         id="circle5578"
         r="0.45"
         cy="7.315"
         cx="5.734"
         style="fill:black;stroke:none" />
      <circle
         id="circle5580"
         r="0.45"
         cy="6.513"
         cx="6.707"
         style="fill:black;stroke:none" />
      <circle
         id="circle5582"
         r="0.45"
         cy="9.670"
         cx="5.730"
         style="fill:black;stroke:none" />
      <circle
         id="circle5584"
         r="0.45"
         cy="8.373"
         cx="6.535"
         style="fill:black;stroke:none" />
      <circle
         id="circle5586"
         r="0.45"
         cy="7.154"
         cx="4.37"
         style="fill:black;stroke:none" />
      <circle
         id="circle5588"
         r="0.45"
         cy="7.25"
         cx="0.622"
         style="fill:black;stroke:none" />
      <circle
         id="circle5590"
         r="0.45"
         cy="5.679"
         cx="0.831"
         style="fill:black;stroke:none" />
      <circle
         id="circle5592"
         r="0.45"
         cy="8.519"
         cx="1.257"
         style="fill:black;stroke:none" />
      <circle
         id="circle5594"
         r="0.45"
         cy="6.877"
         cx="1.989"
         style="fill:black;stroke:none" />
      <circle
         id="circle5596"
         r="0.45"
         cy="3.181"
         cx="0.374"
         style="fill:black;stroke:none" />
      <circle
         id="circle5598"
         r="0.45"
         cy="1.664"
         cx="1.166"
         style="fill:black;stroke:none" />
      <circle
         id="circle5600"
         r="0.45"
         cy="0.093"
         cx="1.151"
         style="fill:black;stroke:none" />
      <circle
         id="circle5602"
         r="0.45"
         cy="10.093"
         cx="1.151"
         style="fill:black;stroke:none" />
      <circle
         id="circle5604"
         r="0.45"
         cy="4.451"
         cx="1.302"
         style="fill:black;stroke:none" />
      <circle
         id="circle5606"
         r="0.45"
         cy="3.763"
         cx="3.047"
         style="fill:black;stroke:none" />
    </pattern>
  </defs>
  <sodipodi:namedview
     id="base"
     pagecolor="#ffffff"
     bordercolor="#666666"
     borderopacity="1.0"
     inkscape:pageopacity="0.0"
     inkscape:pageshadow="2"
     inkscape:zoom="5.6568542"
     inkscape:cx="75.484497"
     inkscape:cy="26.177274"
     inkscape:document-units="mm"
     inkscape:current-layer="layer1"
     showgrid="false"
     inkscape:window-width="1727"
     inkscape:window-height="1023"
     inkscape:window-x="755"
     inkscape:window-y="261"
     inkscape:window-maximized="0"
     inkscape:snap-global="false"
     fit-margin-top="1"
     fit-margin-right="1"
     fit-margin-bottom="1"
     fit-margin-left="1" />
  <metadata
     id="metadata7">
    <rdf:RDF>
      <cc:Work
         rdf:about="">
        <dc:format>image/svg+xml</dc:format>
        <dc:type
           rdf:resource="http://purl.org/dc/dcmitype/StillImage" />
        <dc:title>coat - lineart</dc:title>
        <dc:date>2015-02-13</dc:date>
        <dc:creator>
          <cc:Agent>
            <dc:title>Frank Tremmel</dc:title>
          </cc:Agent>
        </dc:creator>
        <dc:subject>
          <rdf:Bag>
            <rdf:li>coat</rdf:li>
            <rdf:li>clothes</rdf:li>
            <rdf:li>clothing</rdf:li>
            <rdf:li>Mantel</rdf:li>
            <rdf:li>Kleidung</rdf:li>
            <rdf:li>line art</rdf:li>
            <rdf:li>outline</rdf:li>
            <rdf:li></rdf:li>
          </rdf:Bag>
        </dc:subject>
        <dc:description>line art coat</dc:description>
        <cc:license
           rdf:resource="http://creativecommons.org/publicdomain/zero/1.0/" />
      </cc:Work>
      <cc:License
         rdf:about="http://creativecommons.org/publicdomain/zero/1.0/">
        <cc:permits
           rdf:resource="http://creativecommons.org/ns#Reproduction" />
        <cc:permits
           rdf:resource="http://creativecommons.org/ns#Distribution" />
        <cc:permits
           rdf:resource="http://creativecommons.org/ns#DerivativeWorks" />
      </cc:License>
    </rdf:RDF>
  </metadata>
  <g
     inkscape:label="Ebene 1"
     inkscape:groupmode="layer"
     id="layer1"
     transform="translate(-6.2220133,-944.07201)">
    <path
       style="fill:#ffffff;fill-opacity:1;fill-rule:evenodd;stroke:#ffcc00;stroke-width:1.77165329;stroke-linecap:butt;stroke-linejoin:miter;stroke-miterlimit:4;stroke-dasharray:none;stroke-opacity:1"
       d="m 61.029775,1040.6537 c 8.181,-1.3091 14.70768,-5.4786 21.47837,-10.7835 l -20.68287,-13.3466 z"
       id="path6187-0"
       inkscape:connector-curvature="0"
       sodipodi:nodetypes="cccc" />
    <path
       style="fill:url(#pattern6298);fill-opacity:1;fill-rule:evenodd;stroke:#000000;stroke-width:1.77165329;stroke-linecap:butt;stroke-linejoin:miter;stroke-miterlimit:4;stroke-dasharray:none;stroke-opacity:1"
       d="m 60.669236,1040.8659 c 8.180996,-1.3091 14.707683,-5.4786 21.478368,-10.7835 L 61.46473,1016.7358 Z"
       id="path6187"
       inkscape:connector-curvature="0"
       sodipodi:nodetypes="cccc" />
    <path
       style="fill:#ffffff;fill-opacity:1;fill-rule:evenodd;stroke:#ff0000;stroke-width:0.35433066;stroke-linecap:butt;stroke-linejoin:miter;stroke-miterlimit:4;stroke-dasharray:none;stroke-opacity:1"
       d="m 82.347013,994.54457 c 1.46055,1.58463 5.420375,0.86858 7.5,-0.5 2.231251,-1.46836 3.875,-4.25 2.875,-7 0.491055,-0.009 0.334278,-0.66572 1.875,0.375 1.257175,1.8635 1.735089,3.46725 2,5 0.317379,1.21261 -2.23271,4.85624 -4,6.125 -3.478461,2.49723 -8.62116,2.90443 -8.5,2.25003 -1.159503,-1.79168 -2.506548,-3.20835 -2.875,-5.00003 0.09966,-1.02241 0.210856,-2.01945 1.125,-1.25 z"
       id="path5838"
       inkscape:connector-curvature="0"
       sodipodi:nodetypes="cscccsccc" />
    <path
       style="fill:none;fill-rule:evenodd;stroke:#00ffff;stroke-width:0.35433072;stroke-linecap:butt;stroke-linejoin:miter;stroke-miterlimit:4;stroke-dasharray:none;stroke-opacity:1"
       d="m 81.647361,994.05911 c -1.089518,2.21565 0.811881,5.11095 2.580262,6.88889 4.081616,0.386 9.418726,-1.27019 12.36328,-8.04681 0.04672,-1.46 -1.797819,-6.41238 -4.062701,-6.2618 2.924169,5.62926 -5.642896,11.34535 -10.880841,7.41972 z"
       id="path4197-2"
       inkscape:connector-curvature="0"
       sodipodi:nodetypes="ccccc" />
    <path
       style="fill:#ffffff;fill-opacity:1;fill-rule:evenodd;stroke:#ff00ff;stroke-width:0.35433072;stroke-linecap:butt;stroke-linejoin:miter;stroke-miterlimit:4;stroke-dasharray:none;stroke-opacity:1"
       d="m 50.85813,953.15098 c 1.621576,-0.40543 3.586413,-0.33664 6.08416,0.29687 3.936895,1.56089 14.069417,7.16187 21.323684,12.90563 1.220439,1.05323 3.008864,2.90957 3.479247,3.9567 4.865419,6.94239 9.182749,13.90884 11.54879,19.70469 -1.771079,3.79954 -5.310786,6.83053 -10.244018,4.98858 -2.557687,-6.41008 -6.97318,-14.56149 -10.522791,-16.8537 l -15.230221,-9.08767 c -3.13062,-4.01689 -5.274792,-9.79914 -6.438851,-15.9111 z"
       id="path4161-5-3"
       inkscape:connector-curvature="0"
       sodipodi:nodetypes="ccccccccc" />
    <path
       style="fill:#ffffff;fill-opacity:1;fill-rule:evenodd;stroke:#ff0000;stroke-width:0.35433072;stroke-linecap:butt;stroke-linejoin:miter;stroke-miterlimit:4;stroke-dasharray:none;stroke-opacity:1"
       d="m 17.102658,969.38501 c 0,0 8.427819,-8.32464 15.085083,-11.36511 8.843432,-4.03895 18.623923,-4.87778 18.562866,-4.8418 0,0 1.836789,9.95875 6.636425,16.11786 4.00367,7.73299 7.921926,13.83013 11.438522,19.73341 7.368771,12.36983 26.633068,37.98513 26.633068,37.98513 -4.73449,5.2181 -13.270256,13.0909 -18.29349,10.1773 l -9.556294,-10.0984 c 0.988985,4.8438 1.438824,9.6834 1.678327,14.5212 -1.129447,5.1474 -12.754908,8.4978 -21.625508,8.8213 0,0 -7.871698,-31.1978 -12.991557,-44.6696 -2.55996,-6.7361 -5.727605,-12.54394 -9.402659,-20.73112 -1.6454,-7.77559 -8.164783,-15.65017 -8.164783,-15.65017 z"
       id="path4157-4"
       inkscape:connector-curvature="0"
       sodipodi:nodetypes="csccscccccccc" />
    <path
       style="fill:url(#pattern5832);fill-opacity:1;fill-rule:evenodd;stroke:#ff0000;stroke-width:0.35433072;stroke-linecap:butt;stroke-linejoin:miter;stroke-miterlimit:4;stroke-dasharray:none;stroke-opacity:1"
       d="m 17.125592,969.2487 c 0,0 8.42782,-8.32464 15.08509,-11.36511 8.84343,-4.03895 18.62392,-4.87778 18.56286,-4.8418 0,0 1.83679,9.95875 6.63642,16.11786 4.00367,7.73299 7.92193,13.83013 11.43852,19.7334 7.36877,12.36985 26.633074,37.98505 26.633074,37.98505 -4.73449,5.2181 -13.27026,13.0909 -18.293494,10.1773 l -9.55629,-10.0984 c 0.98898,4.8438 1.43882,9.6834 1.67832,14.5212 -1.12944,5.1474 -12.7549,8.4978 -21.6255,8.8213 0,0 -7.8717,-31.1978 -12.99156,-44.6695 -2.55996,-6.73612 -5.7276,-12.54396 -9.40265,-20.73113 -1.6454,-7.77559 -8.16479,-15.65017 -8.16479,-15.65017 z"
       id="path4157-4-9"
       inkscape:connector-curvature="0"
       sodipodi:nodetypes="csccscccccccc" />
    <path
       style="fill:#ffffff;fill-opacity:1;fill-rule:evenodd;stroke:#ff00ff;stroke-width:0.35433072;stroke-linecap:butt;stroke-linejoin:miter;stroke-miterlimit:4;stroke-dasharray:none;stroke-opacity:1"
       d="m 16.965969,969.65978 c -1.045032,0.98404 -2.263543,2.17578 -3.127353,4.50533 l -3.040883,27.02229 c -0.637904,2.0018 0.207308,3.898 1.491589,4.4294 9.128397,3.1465 16.538663,2.8965 25.260214,7.295 4.142305,-3.3435 4.392054,-7.2751 3.299642,-11.4093 -6.163736,-2.31829 -9.590946,-3.73928 -17.216152,-4.8254 0.483947,-3.41862 0.549072,-6.2597 1.5676,-11.59889 -0.757009,-4.97188 -4.480059,-10.66073 -8.234516,-15.41891 z"
       id="path4161-6"
       inkscape:connector-curvature="0"
       sodipodi:nodetypes="ccccccccc" />
    <path
       style="fill:url(#pattern5830);fill-opacity:1;fill-rule:evenodd;stroke:#ff00ff;stroke-width:0.35433072;stroke-linecap:butt;stroke-linejoin:miter;stroke-miterlimit:4;stroke-dasharray:none;stroke-opacity:1"
       d="m 16.988902,969.52347 c -1.04503,0.98404 -2.26354,2.17578 -3.12735,4.50533 l -3.04088,27.0223 c -0.6379,2.0018 0.20731,3.898 1.49159,4.4294 9.12839,3.1465 16.53866,2.8965 25.26021,7.295 4.1423,-3.3435 4.39205,-7.2751 3.29964,-11.4093 -6.16373,-2.31831 -9.59094,-3.7393 -17.21615,-4.82542 0.48395,-3.41862 0.54907,-6.2597 1.5676,-11.59888 -0.75701,-4.97188 -4.48006,-10.66073 -8.23451,-15.41891 z"
       id="path4161-6-0"
       inkscape:connector-curvature="0"
       sodipodi:nodetypes="ccccccccc" />
    <path
       style="fill:#ffffff;fill-opacity:1;fill-rule:evenodd;stroke:#0000ff;stroke-width:0.35433072;stroke-linecap:butt;stroke-linejoin:miter;stroke-miterlimit:4;stroke-dasharray:none;stroke-opacity:1"
       d="m 36.056216,1012.8497 c -3.440182,0.8304 2.630724,2.6206 5.366113,3.3012 4.788956,-2.471 6.477859,-10.8258 3.878182,-14.497 -0.914416,-1.139 -6.983903,-4.65417 -6.096209,-1.5047 2.563065,5.6339 1.652828,9.8378 -3.148086,12.7005 z"
       id="path4197-8-1"
       inkscape:connector-curvature="0"
       sodipodi:nodetypes="ccccc" />
    <path
       style="fill:#ffffff;fill-opacity:1;fill-rule:evenodd;stroke:#ffff00;stroke-width:0.35433072;stroke-linecap:butt;stroke-linejoin:miter;stroke-miterlimit:4;stroke-dasharray:none;stroke-opacity:1"
       d="m 64.436609,1022.8605 c 0.969648,6.8181 1.686674,13.0116 1.413812,16.7575 -0.11463,1.5737 -0.987674,3.0185 -2.549825,3.8459 -3.907426,2.0695 -10.895495,3.2024 -16.703032,3.2873 l 0.987603,3.6039 c 3.455665,0.071 7.89616,-0.5148 12.680535,-2.0123 4.425465,-1.3852 8.057305,-3.4268 8.82391,-5.9289 0.254715,-4.8831 -0.635436,-10.3502 -1.402426,-15.7546 z"
       id="path4178-7"
       inkscape:connector-curvature="0"
       sodipodi:nodetypes="cssccsccc" />
    <path
       style="fill:#ffffff;fill-opacity:1;fill-rule:evenodd;stroke:#ff6600;stroke-width:1.06299222;stroke-linecap:butt;stroke-linejoin:miter;stroke-miterlimit:4;stroke-dasharray:none;stroke-opacity:1"
       d="m 42.116084,975.07228 c -5.933145,-4.12659 -11.088813,-8.45323 -13.96737,-13.69076 -0.885201,-1.61067 -2.308035,-4.44781 -0.45284,-6.21447 0,0 2.65564,-0.045 3.88965,-0.52679 1.416763,-0.5531 3.738703,-2.59825 3.738703,-2.59825 1.287709,-0.89491 2.969585,1.00477 4.015678,4.31534 2.026604,6.41356 4.270768,12.95276 2.776179,18.71493 z"
       id="path4216-3-7"
       inkscape:connector-curvature="0"
       sodipodi:nodetypes="csssssc" />
    <path
       style="fill:url(#pattern6078);fill-opacity:1;fill-rule:evenodd;stroke:#ffcc00;stroke-width:0.35433066;stroke-linecap:butt;stroke-linejoin:miter;stroke-miterlimit:4;stroke-dasharray:none;stroke-opacity:1"
       d="m 42.012418,975.12241 c -5.93314,-4.12659 -11.08881,-8.45323 -13.967367,-13.69076 -0.885201,-1.61067 -2.308035,-4.44781 -0.45284,-6.21447 0,0 2.65564,-0.045 3.889649,-0.52679 1.416763,-0.5531 3.738703,-2.59825 3.738703,-2.59825 1.287705,-0.89491 2.969585,1.00477 4.015675,4.31534 2.02661,6.41356 4.27077,12.95276 2.77618,18.71493 z"
       id="path4216-3-7-5"
       inkscape:connector-curvature="0"
       sodipodi:nodetypes="csssssc" />
    <path
       style="fill:#ffffff;fill-opacity:1;fill-rule:evenodd;stroke:#00ff00;stroke-width:0.35433072;stroke-linecap:butt;stroke-linejoin:miter;stroke-miterlimit:4;stroke-dasharray:none;stroke-opacity:1"
       d="m 26.629092,952.06557 c -1.391325,1.48948 -2.038254,3.73503 -2.702353,5.96349 0.512264,3.59738 1.199889,7.17164 0.702231,10.9051 2.506262,1.47984 4.051644,0.99741 6.032426,1.40487 l -1.434961,2.81078 13.517395,4.34479 c 0,0 1.222886,6.14599 3.202635,12.64828 1.421204,4.66786 2.416783,8.58519 4.895248,12.77242 2.36623,3.9975 4.39841,8.216 7.132189,11.9717 5.852616,8.0404 19.697523,22.4074 19.697523,22.4074 1.847472,0.1981 3.620028,0.7945 5.765296,-0.574 4.161802,-2.3155 8.252393,-6.499 11.993597,-9.673 l -2.177336,-3.0112 -7.969341,7.8424 c -2.327057,1.4685 -4.03016,2.4908 -6.846008,1.5271 0,0 -9.905597,-9.8786 -13.996403,-15.0785 -5.293826,-6.7292 -9.682104,-13.426 -13.213982,-21.22547 -2.046841,-4.52 -4.063996,-14.32115 -4.063996,-14.32115 -1.400813,-9.08959 0.10701,-13.10435 1.448574,-18.56673 l -3.215393,-0.53412 1.227344,-5.2407 c -2.587698,-1.52736 -4.293351,-3.84284 -6.724074,-6.54925 -2.605557,-2.9527 -4.657898,-2.51395 -6.469087,-3.15708 l -3.410355,2.79645 z m 1.890409,3.57374 c 0,0 2.21311,0.0686 3.222193,-0.3131 1.158513,-0.43817 3.010063,-2.17967 3.010063,-2.17967 1.036892,-0.7502 2.517212,1.02446 3.525341,4.03843 1.953115,5.83906 4.092744,11.79952 3.083306,16.9094 -5.116255,-3.94707 -9.593695,-8.04101 -12.208819,-12.85966 -0.804176,-1.48181 -2.10629,-4.08612 -0.632084,-5.5954 z"
       id="path4214"
       inkscape:connector-curvature="0"
       sodipodi:nodetypes="ccccccsssccccccsscccccccccscscsc" />
    <path
       style="fill:url(#pattern5834);fill-opacity:1;fill-rule:evenodd;stroke:#ff00ff;stroke-width:0.35433072;stroke-linecap:butt;stroke-linejoin:miter;stroke-miterlimit:4;stroke-dasharray:none;stroke-opacity:1"
       d="m 50.881062,953.01467 c 1.62158,-0.40543 3.58641,-0.33664 6.08416,0.29687 3.9369,1.56089 14.06942,7.16187 21.32368,12.90563 1.220444,1.05323 3.008874,2.90957 3.479254,3.9567 4.86542,6.94239 9.18275,13.90884 11.54879,19.70468 -1.77108,3.79954 -5.31079,6.83053 -10.24402,4.98858 -2.55769,-6.41008 -6.973184,-14.56148 -10.522794,-16.85369 l -15.23022,-9.08767 c -3.13062,-4.01689 -5.27479,-9.79914 -6.43885,-15.9111 z"
       id="path4161-5-3-0"
       inkscape:connector-curvature="0"
       sodipodi:nodetypes="ccccccccc" />
    <path
       style="color:#000000;font-style:normal;font-variant:normal;font-weight:normal;font-stretch:normal;font-size:medium;line-height:normal;font-family:sans-serif;text-indent:0;text-align:start;text-decoration:none;text-decoration-line:none;text-decoration-style:solid;text-decoration-color:#000000;letter-spacing:normal;word-spacing:normal;text-transform:none;direction:ltr;block-progression:tb;writing-mode:lr-tb;baseline-shift:baseline;text-anchor:start;white-space:normal;clip-rule:nonzero;display:inline;overflow:visible;visibility:visible;opacity:1;isolation:auto;mix-blend-mode:normal;color-interpolation:sRGB;color-interpolation-filters:linearRGB;solid-color:#000000;solid-opacity:1;fill:#000000;fill-opacity:1;fill-rule:evenodd;stroke:none;stroke-width:0.35433072;stroke-linecap:butt;stroke-linejoin:miter;stroke-miterlimit:4;stroke-dasharray:none;stroke-dashoffset:0;stroke-opacity:1;color-rendering:auto;image-rendering:auto;shape-rendering:auto;text-rendering:auto;enable-background:accumulate"
       d="m 32.73396,947.93571 c -0.500191,0.2705 -0.876715,0.64253 -1.210025,1.01054 -0.66661,0.73603 -1.208579,1.46375 -1.713872,1.75334 -0.306092,0.17537 -1.01222,0.18659 -1.878848,0.21379 -0.433312,0.0136 -0.907441,0.0448 -1.397563,0.21503 -0.490127,0.17024 -0.993981,0.51759 -1.322994,1.04632 -2.190005,3.51909 -2.2779,7.07666 -1.954936,10.0321 0.02222,0.20327 0.05136,0.38225 0.07571,0.58061 -0.359965,0.28606 -0.733902,0.57529 -1.081258,0.85609 -1.771047,1.80845 -4.02097,2.94564 -5.689433,4.7324 -0.909142,0.85607 -2.815316,2.21252 -3.822606,4.92904 -1.063228,9.37538 -1.983103,18.79837 -2.9513233,28.19453 0.09107,-0.8417 -0.127958,2.2191 0.05188,3.1154 0.4347133,0.9754 1.2897863,1.5923 2.1375883,1.9431 7.986365,2.6955 16.083984,3.5949 22.824088,6.2441 -0.161201,0.2776 -0.211505,0.6839 -0.128676,0.9048 0.204472,0.5454 0.448753,0.6012 0.704844,0.7725 0.429778,0.2912 0.808456,0.4488 1.233365,0.6529 4.130884,12.4889 8.463263,28.6725 9.480496,32.5209 0.106651,0.551 0.231702,1.0967 0.428181,1.6108 l 0.0085,0.03 c 0.213177,1.2432 0.540431,2.1781 1.714618,2.0744 3.867877,-0.3435 8.72282,-1.0985 12.868851,-2.465 2.073024,-0.6832 3.970962,-1.5144 5.506311,-2.5894 1.535332,-1.075 3.045572,-2.4094 3.149464,-4.2076 0.241516,-4.1806 -0.312029,-8.4126 -1.130605,-12.818 2.884211,3.0046 5.584145,6.2716 8.567282,9.1434 1.52186,0.7703 3.249819,0.6895 4.891765,0.1912 1.641881,-0.4983 3.27913,-1.4109 4.901397,-2.5366 3.244593,-2.2517 6.421562,-5.3848 8.834354,-8.0439 0.671052,-0.7256 0.550636,-1.3425 0.08172,-1.804 0,0 -16.71789,-21.8636 -23.980367,-34.05501 -2.830346,-4.75127 -9.178102,-14.73065 -12.669662,-21.39905 l 12.583242,7.6627 c 1.253043,0.80994 3.588509,3.83098 5.649229,7.36515 1.596828,2.73859 2.788704,5.11462 3.979902,7.81123 -0.06906,-0.0113 -0.467112,0.97885 -0.556423,0.98171 -0.4061,0.43637 -0.101296,1.13364 -0.01806,1.70753 0.08291,0.2968 0.400206,1.1566 0.553042,1.51033 0.611298,1.41485 1.301776,2.40771 2.368962,3.48061 0.456125,0.3133 1.12442,0.29 1.306372,0.3756 2.168277,0.205 3.798325,-0.1678 6.038366,-1.406 2.240085,-1.23811 4.225589,-2.99683 5.757945,-6.52338 0.08671,-0.0943 0.225822,-1.14738 0.250277,-1.25582 0.02025,-0.63154 -0.272681,-0.80859 -0.514617,-1.61833 -0.241977,-0.80985 -0.568025,-1.69311 -0.928072,-2.45322 -0.180002,-0.38007 -0.367359,-0.72924 -0.57171,-1.03356 -0.204376,-0.30431 -0.398195,-0.57491 -0.771055,-0.79233 -0.815477,-0.44354 -1.299308,-0.3414 -2.089939,-0.36789 -2.339631,-5.91205 -5.990252,-11.19501 -10.128158,-17.10468 -0.435955,-0.78623 -1.981936,-2.62161 -2.981979,-3.50216 l -0.02256,-0.0194 -0.02431,-0.0185 c -7.368442,-5.83415 -17.317797,-11.98239 -21.675858,-13.71027 -1.672029,-0.41869 -3.542452,-0.49298 -5.070439,-0.24067 -0.450189,0.0503 -0.965287,0.15275 -1.434396,0.23307 0,0 -3.369709,0.57827 -7.397227,1.47806 -0.315131,0.0704 -0.648184,0.15343 -0.96965,0.22719 -0.271483,-0.35356 -0.540336,-0.70585 -0.825587,-1.07228 -1.606305,-2.06365 -3.62237,-4.21187 -7.233746,-4.85523 -0.666484,-0.11129 -1.274043,0.12709 -1.801729,0.29128 z m 0.361019,2.03726 c 0.297222,-0.10527 0.678948,-0.0701 0.838932,-0.15662 0.213196,-0.1156 1.045936,0.01 1.325484,0.0595 3.074068,0.54763 3.569878,1.73153 5.112482,3.71314 0.581576,0.7495 1.18733,1.4944 1.694132,2.12568 0.95055,1.12786 2.025395,2.20294 3.48067,2.96633 l -1.451695,5.55077 3.302316,0.48068 c -4.07246,14.41305 0.409818,24.98043 1.877898,29.65176 1.05354,3.35232 6.295092,13.85399 9.774842,18.35449 5.924161,7.6616 14.593752,17.6933 19.354971,21.8858 1.406906,0.5698 3.243817,0.097 4.397115,-0.4009 1.283883,-0.5547 2.496564,-1.5074 3.747982,-2.5158 2.24776,-1.8114 4.565537,-4.6578 6.436831,-6.3276 0.540083,0.3113 1.261294,0.1898 1.348209,1.584 -2.231238,2.3206 -5.410595,5.0718 -7.875638,6.7825 -1.46926,1.0195 -3.646091,2.499 -4.853381,2.8654 -1.130795,0.3431 -3.347708,0.1399 -4.012511,-0.1458 l -12.570592,-14.0372 c -2.229893,-2.4902 -6.47678,-8.3144 -8.240292,-10.5978 -2.626989,-3.4017 -7.948484,-13.93896 -9.249413,-18.08557 -2.22809,-7.10213 -4.906667,-20.89744 -4.917552,-20.9456 -0.129938,-2.92767 -0.837305,-7.35259 -1.936032,-11.3945 -0.482125,-1.7736 -1.040964,-3.44994 -1.664025,-4.90053 l -0.86345,-1.79758 c -0.586472,-1.04969 -1.238748,-1.88036 -2.085214,-2.3734 -0.471658,-0.27489 -1.012428,-0.39946 -1.502475,-0.31864 -0.490542,0.0809 -0.871946,0.31894 -1.195105,0.56604 -0.646302,0.49427 -1.162886,1.07817 -1.899911,1.53348 -0.08609,0.0533 -0.825029,0.0853 -1.745185,0.21137 -0.460079,0.063 -0.983611,0.18983 -1.473328,0.51316 -0.4897,0.32337 -0.907637,0.84834 -1.156525,1.52808 l -0.02408,0.0662 -0.01366,0.0698 c -0.185918,0.96494 0.04456,1.9965 0.502644,3.11191 l 0.901622,1.83543 c 0.680249,1.19694 1.560885,2.46908 2.60502,3.78039 2.568814,3.22615 6.098495,6.62894 9.800657,9.36117 l 0.06064,1.371 c -3.765242,-1.57453 -7.096955,-2.70272 -10.495264,-3.45494 l 1.47194,-2.84627 -6.344462,-1.38031 c 0.147306,-1.33652 -0.07162,-2.83729 -0.300703,-4.43976 l -0.287113,-2.32142 c -0.06489,-3.64472 -0.109412,-6.16808 1.699183,-7.98407 0.197337,-0.0685 0.946821,-0.82253 1.316052,-0.83412 0.738462,-0.0232 1.734812,0.10919 2.704415,-0.44651 1.012725,-0.58045 1.596992,-1.49622 2.145552,-2.1019 0.06856,-0.0757 0.159025,-0.12618 0.258099,-0.16127 z m -3.866995,6.3254 c 0.177173,-0.117 0.419111,-0.19156 0.737365,-0.23517 0.636511,-0.0872 1.511959,0.10997 2.434616,-0.46003 0.978523,-0.60452 1.619145,-1.30721 2.044833,-1.63277 0.212846,-0.16276 0.865854,-0.17462 0.927381,-0.18472 0.624223,0.1438 0.606331,0.90596 0.995687,1.42827 l 0.925837,1.75179 c 0.610913,1.38074 1.183311,3.07336 1.675512,4.88402 0.991808,3.64858 1.615083,7.60206 1.799527,10.33474 -3.13125,-2.46854 -6.131516,-5.33261 -8.31641,-8.07659 -1.047073,-1.31501 -1.903874,-2.57695 -2.532233,-3.70731 l -0.837823,-1.83407 c -0.243565,-0.72977 -0.327631,-1.32332 -0.270388,-1.68364 0.12737,-0.29813 0.258849,-0.48069 0.416096,-0.58452 z m -5.599973,8.71885 c 0.239549,1.64725 0.426041,2.98971 0.210505,3.7053 l -0.277252,0.91669 5.707046,1.24243 -1.458631,2.82018 1.159917,0.22768 c 5.036483,1.16912 9.220473,2.71392 13.131774,4.39674 1.099013,4.67012 2.681972,11.1938 4.219233,16.09383 1.44396,4.6026 6.513636,14.71463 9.502398,18.56193 1.694493,2.1813 5.001993,6.9102 7.705346,10.4249 1.194891,6.1032 1.467353,10.5408 1.646313,16.3737 0.0465,1.5159 -1.615063,2.7412 -3.366568,3.5028 -4.35216,1.8924 -9.492056,2.6327 -14.22918,2.8314 -1.408306,-5.4514 -4.995454,-19.0456 -8.49495,-30.0438 0.734371,0.2207 1.466148,0.3969 2.105032,0.4475 0.321479,0.114 0.517858,-0.1238 0.801344,-0.2168 1.944752,-0.9805 3.210493,-2.946 4.105965,-5.3438 0.895442,-2.3977 1.208773,-5.1049 0.07786,-8.7798 0.0056,-0.1282 -0.300501,-0.497 -0.352147,-0.5949 -0.395555,-0.4928 -0.957468,-0.8784 -1.668127,-1.3359 -0.710622,-0.45748 -1.534065,-0.91501 -2.30205,-1.25796 -0.384094,-0.17125 -0.751935,-0.31502 -1.105205,-0.41309 -0.352655,-0.1 -0.676892,-0.17733 -1.101539,-0.0997 -0.212236,0.0386 -0.475676,0.13665 -0.686852,0.36054 -0.211157,0.2239 -0.311574,0.54353 -0.316472,0.79669 0.0012,3.3e-4 -5.14e-4,0.0103 -2.74e-4,0.0134 -1.826888,-0.64293 -3.689319,-1.26454 -5.626302,-1.83235 -2.63376,-4.26701 -5.592319,-9.23338 -7.126618,-13.63819 -1.949041,-7.159 -3.69673,-9.77381 -7.160601,-13.98263 1.909441,-2.01221 3.139976,-3.73616 4.899859,-5.17634 z m 20.364986,-9.74651 c 3.075019,-0.64532 5.181987,-0.17957 6.078722,-0.33822 0.141622,0.64244 0.293672,1.2741 0.45911,1.89566 0.646526,2.85808 2.12169,7.72694 5.545174,12.1729 4.251804,7.40544 8.979683,16.02211 12.984473,22.88039 6.31683,10.60396 19.121074,27.07516 23.123326,32.22156 -2.1214,1.8035 -4.470563,4.3709 -6.746809,6.2054 -1.168084,0.9414 -2.310869,1.675 -3.310145,2.0201 -0.974906,0.3366 -2.148707,0.5205 -2.907792,0.1024 -4.565497,-4.038 -13.227299,-13.6345 -19.042869,-21.1557 -3.213392,-4.1559 -8.32206,-14.73208 -9.210021,-17.44158 -4.931809,-15.0489 -3.736793,-18.75544 -1.329735,-30.58374 l -3.32587,-0.48437 1.317441,-5.03909 c -1.430607,-0.52296 -2.756156,-1.50248 -3.635005,-2.45571 z m -26.687368,16.28982 c 3.139,4.1121 6.259114,9.26163 6.933674,13.30646 -1.686168,5.30088 -0.636777,8.78989 -1.091372,11.27065 0,0 -1.771012,1.39944 -2.109116,1.69691 -0.333853,0.29378 -1.842672,0.1678 -1.842671,0.1678 0,0 1.154258,0.56045 1.676768,0.58561 0.522537,0.0251 1.655224,-0.31958 1.655224,-0.31958 -0.259869,0.26123 -1.566446,3.07542 -0.772959,2.82132 0.366159,-0.9855 2.460639,-3.51825 2.852631,-3.24228 2.509702,0.41491 4.036021,0.88293 6.289994,1.52667 l 3.582575,0.91581 c 1.562874,0.521 3.271719,1.2001 4.921285,1.8493 0.835061,1.2885 0.996545,3.9511 0.563492,5.3584 -0.419438,1.3632 -1.881386,3.7818 -3.053898,4.1314 l -2.883347,-1.2058 c -7.466172,-3.0218 -13.228274,-3.2813 -20.246429,-5.2584 -0.386171,-0.1687 -1.656995,-1.4462 -1.722019,-1.5921 -0.06841,-0.1536 -0.674103,-1.1656 -0.420118,-1.9627 1.022609,-9.30399 2.371653,-18.20785 3.33203,-27.52409 0.46809,-1.20177 1.61413,-1.84812 2.334121,-2.52489 z m 34.907314,-17.10091 c 1.010136,-0.17712 2.828312,-0.26244 4.295062,0.0964 3.558074,1.43091 14.067428,6.65426 21.172873,12.27546 1.144026,0.99047 2.627549,2.84177 2.934625,3.52536 4.223144,6.09029 9.440178,13.06399 11.736475,19.58345 -0.342196,0.65633 -1.49017,2.9614 -3.283917,3.87119 -2.221066,1.12653 -3.237329,1.43701 -5.029344,0.95284 -1.297546,-3.09643 -2.971514,-6.68235 -4.897108,-9.98484 -1.230567,-2.11043 -3.849843,-5.33478 -5.146629,-6.86323 0.110555,-0.6329 -0.103182,-0.995 0.291737,-1.41534 0.484331,-0.51551 1.971572,-1.37779 1.891456,-1.56848 -0.274619,-0.65364 -1.954296,0.13701 -2.67681,0.48954 -0.457188,0.22307 -0.464143,0.95591 -0.708635,1.55438 -0.506015,-0.47492 -0.873826,-0.74015 -1.382903,-1.06889 0.319649,-0.79679 -0.0024,-0.57334 0.561696,-1.53023 0.566262,-0.9606 1.607398,-0.45674 1.705775,-1.17951 0.126445,-0.92898 -2.089546,-0.2602 -2.519474,0.14926 -0.49562,0.47202 -0.720726,1.16699 -1.259299,1.70893 -4.395577,-2.52645 -7.491293,-4.8424 -12.064842,-7.27944 -2.659277,-3.46626 -4.44859,-8.12094 -5.620738,-13.31689 z m -26.725394,33.12784 c 1.367976,3.07829 2.744683,6.21103 4.057207,9.28279 -1.638201,-0.40204 -3.331872,-0.7593 -5.097078,-1.05847 0.62797,-2.55302 0.612698,-5.35568 1.039871,-8.22432 z m 19.553963,14.43314 c 1.335182,1.0751 0.758499,6.7402 0.09201,8.5248 -0.696745,1.8657 -1.816909,4.3515 -3.810453,4.8125 -0.710752,0.1643 -1.924742,-0.034 -3.224838,-0.5251 -1.31876,-0.4984 -2.718122,-1.2942 -2.625695,-1.6538 2.674699,-0.073 5.619992,-3.7408 6.022746,-5.938 0.354806,-2.3674 -1.160804,-6.64 -2.067098,-7.85681 1.029048,-0.97126 5.100068,2.08921 5.613329,2.63641 z m 48.286432,-14.83793 c 0.09878,-0.0511 1.131959,1.21174 1.426535,1.83704 0.308332,0.65104 1.08819,2.15436 1.305484,2.88163 0.02577,0.73884 -0.146652,0.9065 -0.129351,1.0987 -1.396344,3.11635 -3.547503,5.08677 -5.370168,6.0941 -1.743234,0.96346 -4.249634,1.42906 -6.048086,1.31066 -1.082227,-0.64439 -2.966587,-4.28678 -2.586332,-5.56653 0.824985,0.25611 2.092821,1.46693 3.513759,1.45371 1.236732,-0.0115 6.176029,-0.73235 8.214974,-4.98468 0.448282,-0.93491 0.275576,-3.07691 -0.326815,-4.12463 z M 65.724706,1026.3 c 0.824234,0.8157 0.746388,0.8187 1.376902,1.5983 0.706474,4.5632 1.26759,8.8101 1.284649,13.2166 0.0031,0.8083 -1.278427,2.798 -2.411663,3.5916 -1.186782,0.8312 -3.3759,1.9818 -5.281114,2.6096 -3.443874,1.1349 -8.738317,1.9676 -12.247633,2.3388 -0.407045,0.104 -1.046935,-1.2785 -0.579586,-1.749 0.874151,0.014 2.452166,-0.1675 3.311761,-0.3097 4.726305,-0.782 9.833208,-1.5501 13.932838,-4.1108 1.261299,-0.7878 1.998598,-2.7005 1.829488,-4.1894 -0.525821,-4.6294 -0.822368,-8.3534 -1.215668,-12.996 z"
       id="path4157"
       inkscape:connector-curvature="0"
       sodipodi:nodetypes="cccscccccccccccsccccccscscccsccsccscccscccccccccccccccccsccccccccccccsscssccssccsscsccccccsccccccsccccccccccssccsccccscscccccccccccsscssccccccccccccccccccccccccsccsscccccccscscccccccccccccccccccscscsssccsssccccccccccsscccccccsccsscccscccccssccc" />
    <path
       style="fill:#ffffff;fill-opacity:1;fill-rule:evenodd;stroke:#ff6600;stroke-width:0.35433072;stroke-linecap:butt;stroke-linejoin:miter;stroke-miterlimit:4;stroke-dasharray:none;stroke-opacity:1"
       d="m 45.540723,1000.7684 c -1.049629,4.4528 -2.923865,10.866 -5.420301,15.5136 l 5.260341,0.9215 c 2.001317,-3.8972 3.775502,-9.2404 3.259942,-13.999 -1.041713,-0.8511 -2.186944,-2.1867 -3.099982,-2.4361 z"
       id="path4180-1"
       inkscape:connector-curvature="0"
       sodipodi:nodetypes="ccccc" />
    <path
       style="fill:url(#pattern5969);fill-opacity:1;fill-rule:evenodd;stroke:#ff6600;stroke-width:0.35433072;stroke-linecap:butt;stroke-linejoin:miter;stroke-miterlimit:4;stroke-dasharray:none;stroke-opacity:1"
       d="m 45.509327,1000.9631 c -1.04962,4.4528 -2.92386,10.866 -5.4203,15.5136 l 5.26034,0.9215 c 2.00132,-3.8972 3.77551,-9.2404 3.25995,-13.999 -1.04172,-0.8511 -2.18695,-2.1867 -3.09999,-2.4361 z"
       id="path4180-1-3"
       inkscape:connector-curvature="0"
       sodipodi:nodetypes="ccccc" />
    <path
       style="color:#000000;font-style:normal;font-variant:normal;font-weight:normal;font-stretch:normal;font-size:medium;line-height:normal;font-family:sans-serif;text-indent:0;text-align:start;text-decoration:none;text-decoration-line:none;text-decoration-style:solid;text-decoration-color:#000000;letter-spacing:normal;word-spacing:normal;text-transform:none;direction:ltr;block-progression:tb;writing-mode:lr-tb;baseline-shift:baseline;text-anchor:start;white-space:normal;clip-rule:nonzero;display:inline;overflow:visible;visibility:visible;opacity:1;isolation:auto;mix-blend-mode:normal;color-interpolation:sRGB;color-interpolation-filters:linearRGB;solid-color:#000000;solid-opacity:1;fill:#000000;fill-opacity:1;fill-rule:evenodd;stroke:none;stroke-width:1.77165353;stroke-linecap:butt;stroke-linejoin:round;stroke-miterlimit:4;stroke-dasharray:none;stroke-dashoffset:0;stroke-opacity:1;color-rendering:auto;image-rendering:auto;shape-rendering:auto;text-rendering:auto;enable-background:accumulate"
       d="m 44.989759,1000.2309 c -0.232915,0.1141 -0.397795,0.3324 -0.457151,0.585 -0.678292,4.6489 -2.238232,10.6332 -5.031256,14.9174 -0.296929,0.552 0.05766,1.2294 0.680509,1.2999 l 4.947359,0.5576 c 0.365799,0.041 0.71909,-0.1469 0.887842,-0.474 2.047031,-3.9864 3.614462,-8.6935 3.072649,-13.6944 -0.024,-0.2183 -0.128191,-0.42 -0.292421,-0.5658 l -2.814495,-2.4989 c -0.273116,-0.2431 -0.667568,-0.2935 -0.993036,-0.1268 z m 0.836575,1.3844 c 0.994904,-0.1213 1.566763,1.1749 2.506798,1.9161 0.374479,4.2013 -1.254127,9.6529 -3.028552,13.2474 -1.482276,-0.4472 -4.884175,-0.6495 -4.146807,-1.4381 2.520921,-3.9619 4.16115,-9.6226 4.668561,-13.7254 z"
       id="path4180"
       inkscape:connector-curvature="0"
       sodipodi:nodetypes="ccccccccccccccc" />
    <path
       style="fill:#ffffff;fill-opacity:1;fill-rule:evenodd;stroke:#ff00ff;stroke-width:0.35433072;stroke-linecap:butt;stroke-linejoin:miter;stroke-miterlimit:4;stroke-dasharray:none;stroke-opacity:1"
       d="m 58.021887,993.65533 c 4.162134,1.89894 8.690371,3.62799 13.893007,4.50289 0.685828,1.49868 -0.69685,3.45558 -1.644615,4.30508 -4.113293,-0.4127 -9.722005,-1.8905 -13.262998,-5.41018 0.255477,-1.51942 0.479203,-3.18744 1.014607,-3.39779 z"
       id="path4180-7-3"
       inkscape:connector-curvature="0"
       sodipodi:nodetypes="ccccc" />
    <path
       style="fill:url(#pattern6185);fill-opacity:1;fill-rule:evenodd;stroke:#ff00ff;stroke-width:0.35433072;stroke-linecap:butt;stroke-linejoin:miter;stroke-miterlimit:4;stroke-dasharray:none;stroke-opacity:1"
       d="m 58.071912,993.6447 c 4.162132,1.899 8.690372,3.628 13.893002,4.5029 0.68583,1.4987 -0.69685,3.4556 -1.64461,4.3051 -4.11329,-0.4127 -9.722005,-1.8905 -13.262998,-5.4102 0.255477,-1.5194 0.479203,-3.1874 1.014607,-3.3978 z"
       id="path4180-7-3-3"
       inkscape:connector-curvature="0"
       sodipodi:nodetypes="ccccc" />
    <path
       style="color:#000000;font-style:normal;font-variant:normal;font-weight:normal;font-stretch:normal;font-size:medium;line-height:normal;font-family:sans-serif;text-indent:0;text-align:start;text-decoration:none;text-decoration-line:none;text-decoration-style:solid;text-decoration-color:#000000;letter-spacing:normal;word-spacing:normal;text-transform:none;direction:ltr;block-progression:tb;writing-mode:lr-tb;baseline-shift:baseline;text-anchor:start;white-space:normal;clip-rule:nonzero;display:inline;overflow:visible;visibility:visible;opacity:1;isolation:auto;mix-blend-mode:normal;color-interpolation:sRGB;color-interpolation-filters:linearRGB;solid-color:#000000;solid-opacity:1;fill:#000000;fill-opacity:1;fill-rule:evenodd;stroke:none;stroke-width:1.77165353;stroke-linecap:butt;stroke-linejoin:round;stroke-miterlimit:4;stroke-dasharray:none;stroke-dashoffset:0;stroke-opacity:1;color-rendering:auto;image-rendering:auto;shape-rendering:auto;text-rendering:auto;enable-background:accumulate"
       d="m 57.573719,992.71771 c -0.207775,0.10179 -0.363378,0.28604 -0.437308,0.5057 -0.465443,1.38549 -0.547792,2.60579 -0.551221,3.70887 -0.0011,0.24178 0.09681,0.47356 0.270893,0.6415 3.680369,3.55072 8.821183,4.63582 13.147838,5.44592 0.23738,0.044 0.482609,-0.01 0.679045,-0.15 1.609491,-1.1537 1.883566,-2.9048 1.954686,-4.3378 0.02248,-0.4485 -0.294106,-0.84279 -0.736853,-0.91779 -5.043024,-0.84815 -9.372638,-3.00703 -13.555614,-4.91552 -0.246561,-0.11178 -0.530764,-0.10483 -0.771466,0.0191 z m 1.018472,1.80386 c 3.625955,1.67242 7.717862,3.3548 12.262754,4.25923 1.162275,0.3066 0.2637,2.5136 -0.609672,3.1735 -4.644638,-0.02 -9.810331,-1.9269 -12.625067,-5.02463 0.01342,-0.56579 -0.138188,-2.62075 0.971985,-2.4081 z"
       id="path4180-7"
       inkscape:connector-curvature="0"
       sodipodi:nodetypes="ccccccccccccccc" />
    <path
       style="color:#000000;display:inline;overflow:visible;visibility:visible;opacity:1;fill:#000000;fill-opacity:1;fill-rule:evenodd;stroke:#000000;stroke-width:1.06299198;stroke-linecap:butt;stroke-linejoin:round;stroke-miterlimit:4;stroke-dasharray:none;stroke-dashoffset:0;stroke-opacity:1;marker:none;enable-background:accumulate"
       id="path4307"
       sodipodi:type="arc"
       sodipodi:cx="52.757374"
       sodipodi:cy="995.48212"
       sodipodi:rx="1.4103442"
       sodipodi:ry="1.4375012"
       sodipodi:start="0"
       sodipodi:end="6.2813843"
       d="m 54.167718,995.48212 a 1.4103442,1.4375012 0 0 1 -1.409709,1.4375 1.4103442,1.4375012 0 0 1 -1.410979,-1.43621 1.4103442,1.4375012 0 0 1 1.408439,-1.43879 1.4103442,1.4375012 0 0 1 1.412247,1.43491"
       sodipodi:open="true" />
    <path
       style="color:#000000;display:inline;overflow:visible;visibility:visible;opacity:1;fill:#000000;fill-opacity:1;fill-rule:evenodd;stroke:#000000;stroke-width:1.06299198;stroke-linecap:butt;stroke-linejoin:round;stroke-miterlimit:4;stroke-dasharray:none;stroke-dashoffset:0;stroke-opacity:1;marker:none;enable-background:accumulate"
       id="path4307-2"
       sodipodi:type="arc"
       sodipodi:cx="57.222008"
       sodipodi:cy="1003.7946"
       sodipodi:rx="1.4103441"
       sodipodi:ry="1.4375011"
       sodipodi:start="0"
       sodipodi:end="6.2813843"
       d="m 58.632352,1003.7946 a 1.4103441,1.4375011 0 0 1 -1.409709,1.4375 1.4103441,1.4375011 0 0 1 -1.410979,-1.4362 1.4103441,1.4375011 0 0 1 1.408439,-1.4388 1.4103441,1.4375011 0 0 1 1.412247,1.4349"
       sodipodi:open="true" />
    <path
       style="color:#000000;display:inline;overflow:visible;visibility:visible;opacity:1;fill:#000000;fill-opacity:1;fill-rule:evenodd;stroke:#000000;stroke-width:1.06299198;stroke-linecap:butt;stroke-linejoin:round;stroke-miterlimit:4;stroke-dasharray:none;stroke-dashoffset:0;stroke-opacity:1;marker:none;enable-background:accumulate"
       id="path4307-26"
       sodipodi:type="arc"
       sodipodi:cx="62.222008"
       sodipodi:cy="1011.1696"
       sodipodi:rx="1.4103441"
       sodipodi:ry="1.4375011"
       sodipodi:start="0"
       sodipodi:end="6.2813843"
       d="m 63.632352,1011.1696 a 1.4103441,1.4375011 0 0 1 -1.409709,1.4375 1.4103441,1.4375011 0 0 1 -1.410979,-1.4362 1.4103441,1.4375011 0 0 1 1.408439,-1.4388 1.4103441,1.4375011 0 0 1 1.412247,1.4349"
       sodipodi:open="true" />
  </g>
</svg>
